<svg xmlns="http://www.w3.org/2000/svg" class="hide"><symbol id="icon_arrow" viewBox="0 0 32 32"><path d="M9.6 3l12.9 13L9.6 29" clip-rule="evenodd" stroke-width="4" stroke-miterlimit="10"/></symbol><symbol id="icon_balloon" viewBox="0 0 72 64"><g><ellipse cx="36" cy="29.6" rx="35.8" ry="29"/><path d="M54.4 51s3.6 8.9 7.5 12.4c0 0-13.2-1.9-21.5-7.1l14-5.3z"/></g></symbol><symbol id="icon_close" viewBox="-1.8 44.2 48 48"><path d="M44.5 50.9L39.6 46 22.2 63.3 4.9 46 0 50.9l17.3 17.3L0 85.6l4.9 4.9 17.3-17.4 17.4 17.4 4.9-4.9-17.4-17.4z"/></symbol><symbol id="icon_home" viewBox="0 0 26 23"><path d="M13 0L0 11.5h2.5v11H10v-8h5.5v8h8v-11H26L13 0z" fill-rule="evenodd" clip-rule="evenodd"/></symbol><symbol id="icon_like" viewBox="0 0 26 23"><path d="M13 20.5C23.5 14 23.6 8.8 23.6 7.9c0-3-2.4-5.4-5.4-5.4-2.6 0-4.7 1.8-5.2 4.2-.5-2.4-2.7-4.2-5.2-4.2-3 0-5.4 2.4-5.4 5.4 0 .9.1 6.1 10.6 12.6z"/></symbol><symbol id="icon_photo" viewBox="0 0 28 22"><g stroke="#7c7d7d" stroke-width="2" stroke-linejoin="round" stroke-miterlimit="10"><path d="M19.4 5l-.8-3.4H9.4L8.6 5H1.1v15.4h25.8V5z"/><circle cx="14" cy="12.3" r="5"/></g></symbol><symbol id="icon_post" viewBox="0 0 84 52"><g><path d="M31.8 18.2c-4.8.5-8.4 4.9-7.9 9.7s4.9 8.4 9.7 7.9c4.8-.5 8.4-4.9 7.9-9.7s-4.9-8.5-9.7-7.9z"/><path d="M59 5.8L44.4 7.4l-2-5.6C42.1.8 41.1.2 40.1.3L19.9 2.4c-1 .1-1.8.9-2 1.9l-.7 5.9-14.7 1.6c-1.2.1-2.1 1.2-2 2.4L4 47.9c.1 1.2 1.2 2.1 2.4 2L52.7 45l10.8-17.1-2.1-20.1c-.1-1.2-1.2-2.1-2.4-2zM34.1 40.1c-7.3.8-13.8-4.5-14.6-11.8-.8-7.3 4.5-13.8 11.8-14.6s13.8 4.5 14.6 11.8c.7 7.3-4.6 13.9-11.8 14.6z"/></g><path d="M56.5 51.7l8.8-4.2-8.7-5.7-.1 9.9zm18.3-38.4L57.5 40.7l8.7 5.7L83.5 19l-8.7-5.7z" fill-rule="evenodd" clip-rule="evenodd"/></symbol><symbol id="icon_profile" viewBox="0 0 26 23"><g fill-rule="evenodd" clip-rule="evenodd"><path d="M13.3.5c3.5 0 6.3 2.8 6.3 6.4 0 3.5-2.8 6.4-6.3 6.4C9.8 13.2 7 10.4 7 6.9 7 3.3 9.8.5 13.3.5z"/><path d="M21 23v-5.6c0-2.8-3.5-5.1-7.8-5.1s-7.8 2.3-7.8 5.1V23H21z"/></g></symbol><symbol id="icon_search" viewBox="0 0 26 23"><g fill-rule="evenodd" clip-rule="evenodd"><path d="M10.9 1c4.9 0 8.9 4.1 8.9 9.1s-4 9.1-8.9 9.1C6 19.1 2 15.1 2 10.1S6 1 10.9 1zm.1 2.5c3.6 0 6.5 2.9 6.5 6.5s-2.9 6.5-6.5 6.5-6.5-2.9-6.5-6.5S7.4 3.5 11 3.5z"/><path d="M14.6 15.8l2.3-2.2 6.6 7.2-2.3 2.2-6.6-7.2z"/></g></symbol></svg>
